<svg xmlns="http://www.w3.org/2000/svg" xmlns:xlink="http://www.w3.org/1999/xlink" width="290px" height="270px" viewBox="0 0 290 270" version="1.1">
    <title>Shamrock</title>
    <defs/>
    <g id="Page-1" stroke="none" stroke-width="1" fill="none" fill-rule="evenodd">
        <path d="M111.553336 217.8 C82.6028285 251.1 38.3 249.3 22.3 215.8 C18.4391248 206.9 20.7 183.7 18.9 175.6 C17.8411492 170.5 7.1 167.2 1.3 137.4 C-6.27503787 99 36.3 78.3 78.1 92.8 L91.2675561 97.3 L83.7945223 86.3 C59.0551908 49.7 72.3 7.3 108.8 0.5 C118.424923 -0.8 140.2 7.3 148.5 7.7 C153.745963 8 160.1 0.5 190 0.5 C222.41407 0.5 237.9 49.7 213.2 86.3 L207.55999 94.6 L212.940684 92.8 C254.702378 78.3 289.1 98.3 289.7 137.4 C289.084363 165 273.2 170.5 272.1 175.6 C270.336485 183.7 272.6 206.9 268.7 215.8 C252.739644 249.3 208.4 251.1 179.4 217.8 L155.957029 185.2 C156.092966 190.7 155.5 196.8 154.5 202.9 C151.395666 223.7 148.7 230.7 148.5 240.4 C148.362061 247.8 147 269.7 147 269.7 L123.870408 256.8 C123.870408 256.8 129.4 245.9 130.2 239.4 C131.331702 229.5 138.8 216.3 139.7 202.9 C140.081831 196.9 140 190.9 139.8 185.2 L111.553336 217.8 Z" id="Shamrock" fill="#000000"/>
    </g>
</svg>
