<?xml version="1.0" encoding="UTF-8" standalone="no"?>
<svg width="290px" height="270px" viewBox="0 0 290 270" version="1.1" xmlns="http://www.w3.org/2000/svg" xmlns:xlink="http://www.w3.org/1999/xlink" xmlns:sketch="http://www.bohemiancoding.com/sketch/ns">
    <title>shamrock-rainbow</title>
    <description>Created with Sketch (http://www.bohemiancoding.com/sketch)</description>
    <defs>
        <path id="path-1" d="M111.553,217.766 C82.603,251.136 38.26,249.343 22.266,215.839 C18.439,206.864 20.664,183.726 18.934,175.596 C17.841,170.457 7.082,167.188 1.253,137.418 C-6.275,98.965 36.298,78.34 78.059,92.765 L91.268,97.327 L83.795,86.271 C59.055,49.671 72.263,7.303 108.766,0.526 C118.425,-0.848 140.199,7.289 148.5,7.723 C153.746,7.997 160.081,0.526 189.953,0.526 C222.414,0.526 237.948,49.666 213.205,86.271 L207.56,94.624 L212.941,92.765 C254.702,78.34 289.084,98.333 289.747,137.418 C289.084,165.023 273.159,170.457 272.066,175.596 C270.336,183.726 272.561,206.864 268.734,215.839 C252.74,249.343 208.397,251.136 179.447,217.766 L155.957,185.245 C156.093,190.727 155.459,196.776 154.539,202.881 C151.396,223.733 148.684,230.674 148.5,240.442 C148.362,247.762 147.03,269.699 147.03,269.699 L123.87,256.836 C123.87,256.836 129.369,245.897 130.153,239.36 C131.332,229.533 138.76,216.317 139.673,202.881 C140.082,196.86 140.048,190.854 139.769,185.245 L111.553,217.766 L111.553,217.766 Z"></path>
    </defs>
    <g id="Page-1" stroke="none" stroke-width="1" fill="none" fill-rule="evenodd" sketch:type="MSPage">
        <g id="shamrock" sketch:type="MSLayerGroup">
            <mask id="mask-2" sketch:name="Clip 2" fill="white">
                <use xlink:href="#path-1"></use>
            </mask>
            <g id="Clip-2"></g>
            <path d="M0.3,0.3 L289.86,0.3 L289.86,37.3 L0.3,37.3 L0.3,0.3 Z" id="Red" fill="#D0011B" sketch:type="MSShapeGroup" mask="url(#mask-2)"></path>
            <path d="M0.3,36 L289.86,36 L289.86,72.6916667 L0.3,72.6916667 L0.3,36 Z" id="Orange" fill="#F6A623" sketch:type="MSShapeGroup" mask="url(#mask-2)"></path>
            <path d="M0.3,72 L289.86,72 L289.86,107.7 L0.3,107.7 L0.3,72 Z" id="Yellow" fill="#F8E81C" sketch:type="MSShapeGroup" mask="url(#mask-2)"></path>
            <path d="M0.3,107 L289.86,107 L289.86,145.675 L0.3,145.675 L0.3,107 Z" id="Green" fill="#7ED321" sketch:type="MSShapeGroup" mask="url(#mask-2)"></path>
            <path d="M0.3,144 L289.86,144 L289.86,182.675 L0.3,182.675 L0.3,144 Z" id="Blue" fill="#4990E2" sketch:type="MSShapeGroup" mask="url(#mask-2)"></path>
            <path d="M0.3,181 L289.86,181 L289.86,221.658333 L0.3,221.658333 L0.3,181 Z" id="Indigo" fill="#303BA3" sketch:type="MSShapeGroup" mask="url(#mask-2)"></path>
            <path d="M0.3,220 L289.86,220 L289.86,270.575 L0.3,270.575 L0.3,220 Z" id="Violet" fill="#9012FE" sketch:type="MSShapeGroup" mask="url(#mask-2)"></path>
        </g>
    </g>
</svg>