<?xml version="1.0" encoding="UTF-8" standalone="no"?>
<svg width="290px" height="270px" viewBox="0 0 290 270" version="1.1" xmlns="http://www.w3.org/2000/svg" xmlns:xlink="http://www.w3.org/1999/xlink" xmlns:sketch="http://www.bohemiancoding.com/sketch/ns">
    <title>shamrock@2x</title>
    <description>Created with Sketch (http://www.bohemiancoding.com/sketch)</description>
    <defs></defs>
    <g id="Page-1" stroke="none" stroke-width="1" fill="none" fill-rule="evenodd" sketch:type="MSPage">
        <path d="M111.553336,217.766377 C82.6028285,251.135683 38.2603556,249.343246 22.2663225,215.838773 C18.4391248,206.864226 20.6635148,183.725715 18.9341132,175.595584 C17.8411492,170.457422 7.08203129,167.187505 1.25345139,137.41767 C-6.27503787,98.9654353 36.297622,78.339796 78.0593162,92.7649932 L91.2675561,97.3273432 L83.7945223,86.2713481 C59.0551908,49.6706932 72.2632288,7.3030703 108.765625,0.525616408 C118.424923,-0.848388979 140.199294,7.2888941 148.5,7.72265315 C153.745963,7.9967851 160.081431,0.525612401 189.953125,0.525616408 C222.41407,0.525620414 237.94787,49.6661648 213.205478,86.2713481 L207.55999,94.623576 L212.940684,92.7649932 C254.702378,78.339796 289.084369,98.3332649 289.746549,137.41767 C289.084363,165.023443 273.158851,170.457422 272.065887,175.595584 C270.336485,183.725715 272.560875,206.864226 268.733678,215.838773 C252.739644,249.343246 208.397172,251.135683 179.446664,217.766377 L155.957029,185.244634 C156.092966,190.726882 155.459395,196.775527 154.53906,202.880789 C151.395666,223.733235 148.684078,230.674094 148.499998,240.442388 C148.362061,247.762007 147.029511,269.699445 147.029511,269.699445 L123.870408,256.836195 C123.870408,256.836195 129.369,245.896656 130.152946,239.36051 C131.331702,229.532636 138.759534,216.317169 139.672641,202.880795 C140.081831,196.859562 140.047584,190.854443 139.768521,185.244628 L111.553336,217.766377 Z" id="Shamrock" fill="#1E7249" sketch:type="MSShapeGroup"></path>
    </g>
</svg>